Coordinates
version=1
nRows=11
nColumns=40
inDegrees=yes

Units are S.I. units (second, meters, Newtons, ...)
Angles are in degrees.

endheader
time	pelvis_tilt	pelvis_list	pelvis_rotation	pelvis_tx	pelvis_ty	pelvis_tz	hip_flexion_r	hip_adduction_r	hip_rotation_r	knee_angle_r	knee_angle_r_beta	ankle_angle_r	subtalar_angle_r	mtp_angle_r	hip_flexion_l	hip_adduction_l	hip_rotation_l	knee_angle_l	knee_angle_l_beta	ankle_angle_l	subtalar_angle_l	mtp_angle_l	lumbar_extension	lumbar_bending	lumbar_rotation	arm_flex_r	arm_add_r	arm_rot_r	elbow_flex_r	pro_sup_r	wrist_flex_r	wrist_dev_r	arm_flex_l	arm_add_l	arm_rot_l	elbow_flex_l	pro_sup_l	wrist_flex_l	wrist_dev_l
     57.60678571	     -6.61164937	     -5.86356805	      3.32881149	      1.08587005	      0.91545381	      0.49057362	     -0.16194383	      4.31459364	    -15.96832254	     10.60729067	     10.60729067	     18.11265260	      4.04778968	     -1.43426036	     33.48877565	     -7.79618807	      0.30106059	     22.35327396	     22.35327396	      3.71156721	    -10.90326105	      6.69971827	     -9.60095137	      6.48329852	      3.97261504	     50.77039216	    -16.32439378	      7.02485530	     80.32515130	     44.44982400	      0.00000000	      0.00000000	    -19.24550249	     -9.81691750	     25.41067044	     33.59102907	     43.54903983	      0.00000000	      0.00000000
     57.61857143	     -6.65166225	     -5.79733033	      3.18144322	      1.08769196	      0.91439810	      0.48843359	     -0.53589386	      4.03069892	    -15.75914086	     11.04322333	     11.04322333	     18.45902042	      3.97983281	     -1.54608286	     33.13548595	     -7.66399697	     -0.04161899	     22.86019233	     22.86019233	      3.26227898	    -11.25241292	      6.35257792	     -9.40395124	      6.45315164	      3.63973616	     50.96193742	    -15.85950132	      6.94288825	     81.22722890	     44.43604894	      0.00000000	      0.00000000	    -20.04761651	     -9.54672004	     25.87699688	     33.33520278	     43.49902886	      0.00000000	      0.00000000
     57.63035714	     -6.69248426	     -5.71185613	      3.06918071	      1.08933523	      0.91362579	      0.48613259	     -0.81248948	      3.68604642	    -15.60939765	     11.63401205	     11.63401205	     18.73878316	      3.87873364	     -1.66716284	     32.88436789	     -7.50241762	     -0.24577596	     23.55021219	     23.55021219	      2.99797241	    -11.65117009	      5.89601173	     -9.26219663	      6.40689462	      3.41403777	     50.85222788	    -15.58257239	      6.67600669	     82.39066495	     44.41818024	      0.00000000	      0.00000000	    -20.63606429	     -9.33780532	     26.18466218	     33.33299981	     43.47119453	      0.00000000	      0.00000000
     57.64214286	     -6.67947862	     -5.56972790	      2.96964395	      1.09094609	      0.91339409	      0.48368966	     -1.23882614	      3.29783440	    -15.45434337	     12.01653527	     12.01653527	     18.82983507	      3.83342456	     -1.73089166	     32.56015688	     -7.28124193	     -0.36174133	     24.23943692	     24.23943692	      3.04388286	    -11.97133497	      5.68977488	     -9.16888560	      6.27052343	      3.28258626	     50.57748379	    -15.57670363	      6.55214498	     82.78367624	     44.41135928	      0.00000000	      0.00000000	    -21.01356702	     -9.10057815	     26.29625063	     33.31257645	     43.45775982	      0.00000000	      0.00000000
     57.65392857	     -6.80407702	     -5.43790800	      2.92307477	      1.09209482	      0.91314843	      0.48106127	     -1.08450794	      2.75458818	    -15.55433294	     13.19609011	     13.19609011	     19.02628291	      3.81489357	     -2.08470012	     32.46096257	     -7.00315743	     -0.27329872	     24.97030319	     24.97030319	      3.13279780	    -12.46274204	      5.23576930	     -9.15005356	      6.18269830	      3.75250261	     49.10460905	    -16.00388772	      4.86791884	     86.51465431	     44.38291132	      0.00000000	      0.00000000	    -20.87227900	     -9.27105903	     26.67549991	     33.76794139	     43.48067460	      0.00000000	      0.00000000
     57.66571429	     -6.86558092	     -5.33937479	      2.89305089	      1.09318681	      0.91337671	      0.47834687	     -1.04253636	      2.27510664	    -15.55263128	     14.23952392	     14.23952392	     19.01530648	      3.65663270	     -2.35625093	     32.30215027	     -6.77642133	     -0.21020594	     25.70876138	     25.70876138	      3.57912010	    -12.71324362	      5.11312749	     -9.10455020	      6.14219680	      3.41940003	     48.52972459	    -15.80938373	      4.66765152	     87.29951354	     44.37301285	      0.00000000	      0.00000000	    -20.80233942	     -9.09086803	     26.86720228	     33.74310783	     43.47663347	      0.00000000	      0.00000000
     57.67750000	     -6.98671197	     -5.17132047	      2.87228820	      1.09411170	      0.91386762	      0.47544828	     -0.79837074	      1.62963249	    -15.71535169	     15.52779100	     15.52779100	     18.87269567	      3.66910676	     -2.98967880	     32.12180151	     -6.43119273	     -0.07567968	     26.28963688	     26.28963688	      4.34793678	    -12.91743988	      5.62611659	     -9.06505584	      6.03231292	      3.53471888	     47.19145883	    -16.01594782	      3.78301367	     89.04793358	     44.36658358	      0.00000000	      0.00000000	    -20.40108292	     -9.08267707	     27.01628713	     33.78152402	     43.50740528	      0.00000000	      0.00000000
     57.68928571	     -7.04803415	     -5.06177379	      2.84555106	      1.09501116	      0.91467526	      0.47258215	     -0.54359126	      1.04357641	    -15.80902886	     16.92427696	     16.92427696	     18.62366672	      3.53590758	     -3.61515899	     31.81437317	     -6.17107582	     -0.02687880	     26.74314608	     26.74314608	      5.13115703	    -13.04770734	      5.94024764	     -9.07482030	      6.01518178	      3.47400924	     46.03238775	    -16.10102839	      3.24383660	     90.05727461	     44.36480779	      0.00000000	      0.00000000	    -19.89241444	     -9.03387922	     27.06258712	     33.85504884	     43.53840652	      0.00000000	      0.00000000
     57.70107143	     -7.12948080	     -4.94196324	      2.81256499	      1.09578877	      0.91573513	      0.46968768	     -0.18370152	      0.40525125	    -15.92560327	     18.40651984	     18.40651984	     17.90057788	      3.38912865	     -5.18590544	     31.46963285	     -5.87830218	      0.06773685	     27.08853401	     27.08853401	      6.24808748	    -13.01959890	      7.22614341	     -9.14884862	      5.94877729	      3.95180407	     44.06235160	    -16.59444984	      1.81813797	     92.12097082	     44.38687304	      0.00000000	      0.00000000	    -18.94538606	     -9.08980021	     27.08257410	     33.90549032	     43.63153853	      0.00000000	      0.00000000
     57.71285714	     -7.21093216	     -4.82705344	      2.72102892	      1.09652941	      0.91685366	      0.46690318	      0.40984874	     -0.27182462	    -15.85127595	     20.33356848	     20.33356848	     17.45521298	      3.01987025	     -5.83271939	     30.96867915	     -5.63763321	     -0.00371673	     27.13709178	     27.13709178	      6.89680642	    -13.01946642	      7.17637966	     -9.14735173	      5.90540104	      3.69998938	     42.85481818	    -16.49075428	      1.74109792	     92.21668147	     44.39117058	      0.00000000	      0.00000000	    -18.30364169	     -9.04765288	     27.01371400	     34.10502554	     43.66529270	      0.00000000	      0.00000000
     57.72464286	     -7.32625707	     -4.73827717	      2.61083467	      1.09717895	      0.91797857	      0.46419623	      1.22368531	     -0.96660598	    -15.73857858	     22.55324848	     22.55324848	     16.77146122	      2.52986822	     -6.82012631	     30.42987963	     -5.41997086	     -0.07775509	     27.02949684	     27.02949684	      7.48198314	    -13.04850092	      7.24794595	     -9.11581654	      5.88777661	      3.60899178	     41.30221304	    -16.49779285	      1.41196698	     92.45026128	     44.39924472	      0.00000000	      0.00000000	    -17.51171505	     -9.08983905	     26.76525519	     34.43654178	     43.72638671	      0.00000000	      0.00000000
